<?xml version="1.0" standalone="no"?>
<!DOCTYPE svg PUBLIC "-//W3C//DTD SVG 20010904//EN"
 "http://www.w3.org/TR/2001/REC-SVG-20010904/DTD/svg10.dtd">
<svg version="1.0" xmlns="http://www.w3.org/2000/svg"
 width="100.000000pt" height="100.000000pt" viewBox="0 0 100.000000 100.000000"
 preserveAspectRatio="xMidYMid meet">
<metadata>
Created by potrace 1.11, written by Peter Selinger 2001-2013
</metadata>
<g transform="translate(0.000000,100.000000) scale(0.100000,-0.100000)"
fill="#000000" stroke="none">
<path d="M415 955 c-44 -23 -152 -79 -241 -124 l-160 -84 0 -249 1 -249 150
-78 c83 -43 190 -99 239 -124 l88 -47 237 122 c130 66 238 123 241 125 9 8 5
494 -5 502 -5 5 -91 50 -190 101 -99 51 -203 105 -230 120 l-51 27 -79 -42z
m214 -134 c72 -68 129 -126 127 -130 -3 -5 -478 -6 -551 -2 -19 2 -19 3 -3 15
10 7 48 40 85 73 175 155 197 173 203 171 4 -2 67 -59 139 -127z m112 22 l189
-98 -58 -27 c-31 -15 -61 -27 -65 -28 -5 0 -50 40 -100 89 -51 49 -109 105
-130 125 -20 20 -35 36 -31 36 3 0 91 -44 195 -97z m-354 53 c-14 -11 -55 -46
-162 -141 -6 -5 -25 -23 -42 -39 l-32 -29 -47 28 -47 28 44 23 c24 12 100 51
169 87 69 36 127 63 130 60 3 -2 -3 -10 -13 -17z m-274 -320 c-14 -50 -36
-127 -49 -171 l-23 -80 0 198 -1 198 49 -26 49 -27 -25 -92z m837 -63 c0 -113
-2 -204 -5 -201 -5 5 -58 148 -107 291 -12 33 -17 62 -12 67 9 9 103 48 117
49 4 1 7 -92 7 -206z m-655 -92 c69 -112 129 -209 132 -216 5 -14 9 -14 -197
30 -185 39 -173 34 -166 69 16 78 91 334 97 328 4 -4 64 -99 134 -211z m520
172 c9 -27 28 -78 41 -115 13 -38 36 -100 50 -139 14 -38 24 -72 22 -74 -3 -3
-420 -75 -434 -75 -2 0 63 101 146 225 83 124 152 225 154 225 2 0 11 -21 21
-47z m-573 -383 c79 -17 158 -34 177 -38 32 -7 35 -11 48 -66 7 -33 11 -61 9
-63 -3 -4 -369 181 -385 194 -8 6 7 3 151 -27z m621 10 c-24 -21 -347 -180
-353 -173 -13 14 -31 106 -23 113 4 5 27 11 51 14 24 3 82 12 130 21 48 8 105
17 127 21 22 3 41 7 43 8 1 2 9 3 17 3 9 0 12 -3 8 -7z"/>
</g>
</svg>
